# xmcd
#
# Track frame offsets:
#	182
#	15792
#	25077
#	40425
#	50382
#	60342
#	69800
#	92760
#	131587
#	141425
#	147882
#	189250
#	199895
#	206825
#	218550
#	230505
#	238277
#	242530
#	258845
#
# Disc length: 4309 seconds
#
# Revision: 3
# Processed by: cddbd v1.5.1PL2 Copyright (c) Steve Scherf et al.
# Submitted via: audiograbber 1.83.01
#
DISCID=0710d313
DTITLE=Various Artist - Le chant du silence
DYEAR=1990
DGENRE=Gregorian
TTITLE0=I. Temps de l'Avent - Rorate Caeli
TTITLE1=I. Temps de l'Avent - Ave Maria
TTITLE2=I. Temps de l'Avent - Populus Sion
TTITLE3=II. Noël - Puer Natus Est
TTITLE4=III. Epiphanie - Reges Tharsis
TTITLE5=IV. Temps du Carême - Adjutor in Opportunitatibus
TTITLE6=V. Semaine Sainte - Crux Fidelis
TTITLE7=VI. Pâques - Exsultet
TTITLE8=VI. Pâques - Venite Populi
TTITLE9=VI. Pâques - Victimae Paschali
TTITLE10=VII. Fête de l'Ascension - Ascendit Deus
TTITLE11=VIII. Fête de l'Assomption - Ave Maris Stella
TTITLE12=IX. Fête de la Toussaint - Beati Mundo Corde
TTITLE13=IX. Fête de la Toussaint - Placare
TTITLE14=X. Fête de la Dédicace - Terribilis
TTITLE15=XI. Fête de Saint-Benoît - Claris Coniubila
TTITLE16=XII. Office Monastique - Te Decet Laus
TTITLE17=XII. Office Monastique - Tierce au Monastère
TTITLE18=XII. Office Monastique - Complies Cisterciennes
EXTD=
EXTT0=
EXTT1=
EXTT2=
EXTT3=
EXTT4=
EXTT5=
EXTT6=
EXTT7=
EXTT8=
EXTT9=
EXTT10=
EXTT11=
EXTT12=
EXTT13=
EXTT14=
EXTT15=
EXTT16=
EXTT17=
EXTT18=
PLAYORDER=
